<svg version="1" xmlns="http://www.w3.org/2000/svg" width="400" height="400" viewBox="0 0 300 300"><path d="M0 150v150h300V0H0v150zM147.9 47.1c15.9 2.5 30.5 10.1 42.2 21.8 30.5 30.5 30.5 78.7 0 109.2-25.4 25.4-63.4 30.1-94.6 11.7-9-5.3-21-17.3-26.3-26.3-18.4-31.2-13.7-69.2 11.7-94.6 17.9-17.8 42.4-25.8 67-21.8zm75.5 143.8c7.4 3.6 11.8 8.2 15.5 16.1 2.1 4.5 2.6 7 2.6 13.5 0 7.1-.4 8.9-3.3 14.7-5.9 12-16.1 18.3-29.7 18.3-9.1 0-16.2-2.6-22.8-8.4-8.4-7.4-12.5-22.3-9.3-33.3 6-20.6 27.8-30.4 47-20.9z"/><path d="M124.2 91.8c-14.2 5.1-23.1 18.8-22 34.1.9 12.2 7.8 22.5 18.7 27.8 4.9 2.4 6.8 2.8 14.6 2.8s9.7-.4 14.6-2.8c6.6-3.2 13.2-9.9 16.2-16.5 1.7-3.7 2.2-6.6 2.2-13.7 0-7.8-.4-9.7-2.8-14.6-3.2-6.7-10-13.2-16.5-16.2-6.7-2.9-18.1-3.3-25-.9z"/></svg>